<svg width="2209" height="1298" xmlns="http://www.w3.org/2000/svg" xmlns:xlink="http://www.w3.org/1999/xlink" xml:space="preserve" overflow="hidden"><g transform="translate(-449 -297)"><g><path d="M309.716 0.00269904C479.62 0.672385 617 138.595 617 308.5L462.75 308.5C462.75 223.547 394.06 154.586 309.108 154.251Z" fill="#0064A6" fill-rule="evenodd" fill-opacity="1" transform="matrix(1 -1.22465e-16 -1.22465e-16 -1 1117 1362)"/><path d="M309.716 0.00269904C479.62 0.672385 617 138.595 617 308.5L461.51 308.5C461.51 224.23 393.372 155.824 309.103 155.491Z" fill="#0064A6" fill-rule="evenodd" fill-opacity="1" transform="matrix(1.83697e-16 1 1 -1.83697e-16 1579 747)"/><path d="M309.714 0.00269904C479.619 0.670219 617 138.37 617 308L463 308C463 223.184 394.198 154.334 309.107 154.001Z" fill="#75C8FF" fill-rule="evenodd" fill-opacity="1" transform="matrix(-6.12323e-17 -1 -1 6.12323e-17 2193 1366)"/><path d="M309.216 0.00269904C478.844 0.673469 616.001 138.596 616.001 308.5L462 308.5C462 223.41 393.423 154.337 308.609 154.001Z" fill="#CCE0ED" fill-rule="evenodd" fill-opacity="1" transform="matrix(-1 0 0 1 1735 750)"/><path d="M309.714 0.00269904C479.619 0.670219 617 138.37 617 308L463 308C463 223.184 394.198 154.334 309.107 154.001Z" fill="#80B2D3" fill-rule="evenodd" fill-opacity="1" transform="matrix(1.83697e-16 1 1 -1.83697e-16 1119 745)"/><path d="M309.716 0.00269904C479.62 0.672385 617 138.595 617 308.5L462.75 308.5C462.75 223.547 394.06 154.586 309.108 154.251Z" fill="#75C8FF" fill-rule="evenodd" fill-opacity="1" transform="matrix(-6.12323e-17 -1 -1 6.12323e-17 1734 1366)"/><path d="M309.716 0.00269904C479.62 0.672385 617 138.595 617 308.5L462.75 308.5C462.75 223.547 394.06 154.586 309.108 154.251Z" fill="#75C8FF" fill-rule="evenodd" fill-opacity="1" transform="matrix(1.83697e-16 1 1 -1.83697e-16 2039 749)"/><path d="M309.716 0.00269904C479.62 0.672385 617 138.595 617 308.5L462.75 308.5C462.75 223.547 394.06 154.586 309.108 154.251Z" fill="#75C8FF" fill-rule="evenodd" fill-opacity="1" transform="matrix(1 -1.22465e-16 -1.22465e-16 -1 2036 1366)"/><path d="M309.216 0.00269904C478.223 0.671012 615.123 137.625 615.997 306.905L461.209 307.707C460.775 223.362 392.676 155.123 308.606 154.79Z" fill="#0064A6" fill-rule="evenodd" fill-opacity="1" transform="matrix(-6.12323e-17 -1 -1 6.12323e-17 2653 1370)"/><path d="M309.716 0.00269904C479.62 0.672385 617 138.595 617 308.5L462.75 308.5C462.75 223.547 394.06 154.586 309.108 154.251Z" fill="#75C8FF" fill-rule="evenodd" fill-opacity="1" transform="matrix(-1 0 0 1 2196 749)"/><path d="M309.216 0.00269904C478.844 0.673469 616.001 138.596 616.001 308.5L460.762 308.5C460.762 224.092 392.736 155.573 308.604 155.239Z" fill="#0064A6" fill-rule="evenodd" fill-opacity="1" transform="matrix(1 -1.22465e-16 -1.22465e-16 -1 1577 1364)"/><path d="M310.716 0.00270779C481.172 0.670237 619 138.594 619 308.501L463.886 308.5C463.886 224.022 395.133 155.446 310.104 155.115Z" fill="#0064A6" fill-rule="evenodd" fill-opacity="1" transform="matrix(-1 0 0 1 2657 754)"/><path d="M0 0 25.7949 0 41.0003 77.5 25.7949 155 0 155 15.2054 77.5Z" fill="#FFFFFF" fill-rule="evenodd" fill-opacity="1" transform="matrix(-1 0 0 1 1444 1207)"/><path d="M0 0 26.1432 0 41.5539 78.3857 26.1432 156.771 0 156.771 15.4107 78.3857Z" fill="#FFFFFF" fill-rule="evenodd" fill-opacity="1" transform="matrix(0.998278 -0.0586626 -0.0586626 -0.998278 1410.83 906.424)"/><path d="M0 0 25.7994 0 41.0073 78.4999 25.7994 157 0 157 15.2079 78.4999Z" fill="#FFFFFF" fill-rule="evenodd" fill-opacity="1" transform="matrix(1.83697e-16 1 1 -1.83697e-16 1578 1042)"/><text fill="#000000" fill-opacity="1" font-family="Arial,Arial_MSFontService,sans-serif" font-style="normal" font-variant="normal" font-weight="400" font-stretch="normal" font-size="83" text-anchor="start" direction="ltr" writing-mode="lr-tb" unicode-bidi="normal" text-decoration="none" transform="matrix(1 0 0 1 503.377 1268)">Data Acquisition</text><text fill="#000000" fill-opacity="1" font-family="Arial,Arial_MSFontService,sans-serif" font-style="normal" font-variant="normal" font-weight="400" font-stretch="normal" font-size="83" text-anchor="start" direction="ltr" writing-mode="lr-tb" unicode-bidi="normal" text-decoration="none" transform="matrix(1 0 0 1 503.377 1367)">and Exploration</text><text fill="#000000" fill-opacity="1" font-family="Arial,Arial_MSFontService,sans-serif" font-style="normal" font-variant="normal" font-weight="400" font-stretch="normal" font-size="83" text-anchor="start" direction="ltr" writing-mode="lr-tb" unicode-bidi="normal" text-decoration="none" transform="matrix(1 0 0 1 742.352 957)">Modelling</text><text fill="#000000" fill-opacity="1" font-family="Arial,Arial_MSFontService,sans-serif" font-style="normal" font-variant="normal" font-weight="400" font-stretch="normal" font-size="83" text-anchor="start" direction="ltr" writing-mode="lr-tb" unicode-bidi="normal" text-decoration="none" transform="matrix(1 0 0 1 1131.12 666)">Evaluation</text><text fill="#000000" fill-opacity="1" font-family="Arial,Arial_MSFontService,sans-serif" font-style="normal" font-variant="normal" font-weight="400" font-stretch="normal" font-size="83" text-anchor="start" direction="ltr" writing-mode="lr-tb" unicode-bidi="normal" text-decoration="none" transform="matrix(1 0 0 1 698.768 1525)">Project Understanding</text><path d="M1529.16 1304 1529.16 1433.92 1518.84 1433.92 1518.84 1304ZM1539.47 1433.92C1539.47 1442.46 1532.54 1449.39 1524 1449.39 1515.46 1449.39 1508.53 1442.46 1508.53 1433.92 1508.53 1425.38 1515.46 1418.45 1524 1418.45 1532.54 1418.45 1539.47 1425.38 1539.47 1433.92Z" fill="#000000" fill-rule="nonzero" fill-opacity="1"/><path d="M5.15625-1.43229e-05 5.15661 129.921-5.15589 129.921-5.15625 1.43229e-05ZM15.4691 129.921C15.4691 138.464 8.54356 145.39 0.000403861 145.39-8.54275 145.39-15.4684 138.464-15.4684 129.921-15.4684 121.378-8.54284 114.453 0.000317924 114.453 8.54347 114.452 15.4691 121.378 15.4691 129.921Z" fill="#000000" fill-rule="nonzero" fill-opacity="1" transform="matrix(1 0 0 -1 1524 821.921)"/><text fill="#000000" fill-opacity="1" font-family="Arial,Arial_MSFontService,sans-serif" font-style="normal" font-variant="normal" font-weight="400" font-stretch="normal" font-size="83" text-anchor="start" direction="ltr" writing-mode="lr-tb" unicode-bidi="normal" text-decoration="none" transform="matrix(1 0 0 1 1948.47 406)">Deployment</text><path d="M0 0 25.7946 0 40.9999 81 25.7946 162 0 162 15.2053 81Z" fill="#FFFFFF" fill-rule="evenodd" fill-opacity="1" transform="matrix(-6.12323e-17 -1 -1 6.12323e-17 1276 1078)"/><path d="M0 0 26.4238 0 41.9999 81.0001 26.4238 162 0 162 15.5761 81.0001Z" fill="#FFFFFF" fill-rule="evenodd" fill-opacity="1" transform="matrix(1.83697e-16 1 1 -1.83697e-16 2494 1042)"/><path d="M1.53132e-05-5.15625 121.52-5.15589 121.52 5.15661-1.53132e-05 5.15625ZM121.52-15.4684C130.063-15.4684 136.988-8.54275 136.988 0.000406832 136.988 8.54356 130.063 15.4691 121.52 15.4691 112.976 15.4691 106.051 8.54347 106.051 0.000314953 106.051-8.54284 112.977-15.4684 121.52-15.4684Z" fill="#000000" fill-rule="nonzero" fill-opacity="1" transform="matrix(-1 0 0 1 1235.52 900)"/><path d="M0 0 26.4239 0 41.9999 80.4999 26.4239 161 0 161 15.5761 80.4999Z" fill="#FFFFFF" fill-rule="evenodd" fill-opacity="1" transform="matrix(-6.12323e-17 -1 -1 6.12323e-17 2195 1075)"/><path d="M1.53132e-05-5.15625 121.52-5.15589 121.52 5.15661-1.53132e-05 5.15625ZM121.52-15.4684C130.063-15.4684 136.988-8.54275 136.988 0.000406832 136.988 8.54356 130.063 15.4691 121.52 15.4691 112.976 15.4691 106.051 8.54347 106.051 0.000314953 106.051-8.54284 112.977-15.4684 121.52-15.4684Z" fill="#000000" fill-rule="nonzero" fill-opacity="1" transform="matrix(-1 0 0 1 1235.52 1212)"/><path d="M1665 542C1665 519.08 1668.1 500.5 1671.92 500.5L2152.45 500.5C2156.27 500.5 2159.37 481.92 2159.37 459 2159.37 481.92 2162.47 500.5 2166.29 500.5L2638.08 500.5C2641.9 500.5 2645 519.08 2645 542" stroke="#000000" stroke-width="13.75" stroke-linecap="butt" stroke-linejoin="round" stroke-miterlimit="10" stroke-opacity="1" fill="none" fill-rule="evenodd"/><text fill="#000000" fill-opacity="1" font-family="Arial,Arial_MSFontService,sans-serif" font-style="normal" font-variant="normal" font-weight="400" font-stretch="normal" font-size="83" text-anchor="start" direction="ltr" writing-mode="lr-tb" unicode-bidi="normal" text-decoration="none" transform="matrix(1 0 0 1 1169.11 406)">Data Mining</text><path d="M1117 542C1117 519.632 1120.02 501.5 1123.75 501.5L1376.61 501.5C1380.33 501.5 1383.35 483.367 1383.35 460.999 1383.35 483.367 1386.38 501.5 1390.1 501.5L1638.25 501.5C1641.98 501.5 1645 519.632 1645 542" stroke="#000000" stroke-width="13.75" stroke-linecap="butt" stroke-linejoin="round" stroke-miterlimit="10" stroke-opacity="1" fill="none" fill-rule="evenodd"/></g></g></svg>